<svg width="230" height="50" xmlns="http://www.w3.org/2000/svg" data-name="Layer 1">

 <g>
  <title>Layer 1</title>
  <g id="svg_13">
   <path class="cls-4" d="m43.30847,33.89132a13.29,13.29 0 0 1 -0.58,4.09a12.3,12.3 0 0 1 -1.51,3.2a10.26,10.26 0 0 1 -2.22,2.37a13.36,13.36 0 0 1 -2.63,1.59a13.13,13.13 0 0 1 -5.4,1.21l-29.66,0l0,-7.68l29.63,0a4.53,4.53 0 0 0 3.44,-1.29a4.91,4.91 0 0 0 1.22,-3.49a5.78,5.78 0 0 0 -0.32,-1.95a4.55,4.55 0 0 0 -0.93,-1.53a4.15,4.15 0 0 0 -1.48,-1a5.22,5.22 0 0 0 -1.93,-0.35l-17.63,0a13.46,13.46 0 0 1 -4,-0.67a11.85,11.85 0 0 1 -4,-2.14a11.51,11.51 0 0 1 -3.07,-3.87a12.64,12.64 0 0 1 -1.23,-5.84a12.61,12.61 0 0 1 1.21,-5.87a11.73,11.73 0 0 1 7.09,-6a13.46,13.46 0 0 1 4,-0.67l26.13,0l0,7.67l-26.13,0a4.42,4.42 0 0 0 -3.42,1.33a5,5 0 0 0 -1.22,3.52a4.86,4.86 0 0 0 1.22,3.49a4.5,4.5 0 0 0 3.42,1.3l17.72,0a13.46,13.46 0 0 1 8,2.94a10.91,10.91 0 0 1 2.2,2.38a11.42,11.42 0 0 1 1.52,3.18a13.88,13.88 0 0 1 0.56,4.08z" fill="#152b47" id="svg_8"/>
   <path class="cls-4" d="m87.51847,11.67132l-16.92,0l0,34.68l-7.68,0l0,-34.68l-17,0l0,-7.67l41.55,0l0.05,7.67z" fill="#152b47" id="svg_9"/>
   <path class="cls-4" d="m133.23847,46.35132l-7.68,0l0,-10.39l-27,0l0,10.39l-7.68,0l0,-21.17a22.42,22.42 0 0 1 1.6,-8.51a19.73,19.73 0 0 1 11.14,-11.1a22.17,22.17 0 0 1 8.44,-1.57l17.31,0a3.87,3.87 0 0 1 2.75,1.13a3.63,3.63 0 0 1 0.82,1.24a3.79,3.79 0 0 1 0.3,1.5l0,38.48zm-34.67,-18.07l27,0l0,-16.61l-13.5,0c-0.23,0 -0.73,0 -1.49,0.1a15.94,15.94 0 0 0 -2.63,0.52a16.81,16.81 0 0 0 -3.14,1.27a11,11 0 0 0 -3,2.36a12.05,12.05 0 0 0 -2.34,3.75a14.83,14.83 0 0 0 -0.9,5.48l0,3.13z" fill="#152b47" id="svg_10"/>
   <path class="cls-4" d="m180.07847,46.35132l-27.7,0a11.2,11.2 0 0 1 -2.29,-0.25a11.49,11.49 0 0 1 -4.71,-2.15a9.43,9.43 0 0 1 -1.94,-2a10,10 0 0 1 -1.34,-2.78a11.56,11.56 0 0 1 -0.5,-3.56l0,-20.83a11.27,11.27 0 0 1 0.25,-2.29a12.39,12.39 0 0 1 0.78,-2.42a10.7,10.7 0 0 1 1.39,-2.29a9.44,9.44 0 0 1 2.05,-1.93a10.12,10.12 0 0 1 2.76,-1.34a11.48,11.48 0 0 1 3.55,-0.51l27.7,0l0,7.67l-27.7,0a3.15,3.15 0 0 0 -2.31,0.8a3.21,3.21 0 0 0 -0.79,2.36l0,20.74a2.82,2.82 0 0 0 3.1,3.1l27.7,0l0,7.68z" fill="#152b47" id="svg_11"/>
   <path class="cls-4" d="m227.88847,33.89132a13.61,13.61 0 0 1 -0.57,4.09a12.31,12.31 0 0 1 -1.52,3.2a10.26,10.26 0 0 1 -2.22,2.37a13.36,13.36 0 0 1 -2.63,1.59a13.13,13.13 0 0 1 -5.4,1.21l-29.62,0l0,-7.68l29.62,0a4.53,4.53 0 0 0 3.44,-1.29a4.87,4.87 0 0 0 1.22,-3.49a5.54,5.54 0 0 0 -0.32,-1.95a4.55,4.55 0 0 0 -0.93,-1.53a4.06,4.06 0 0 0 -1.48,-1a5.18,5.18 0 0 0 -1.93,-0.35l-17.66,0a13.51,13.51 0 0 1 -4,-0.67a11.85,11.85 0 0 1 -4,-2.14a11.51,11.51 0 0 1 -3.07,-3.87a12.64,12.64 0 0 1 -1.23,-5.84a12.61,12.61 0 0 1 1.21,-5.87a11.73,11.73 0 0 1 7.07,-6a13.51,13.51 0 0 1 4,-0.67l26.13,0l0,7.67l-26.11,0a4.38,4.38 0 0 0 -3.41,1.33a5,5 0 0 0 -1.23,3.52a4.83,4.83 0 0 0 1.23,3.49a4.46,4.46 0 0 0 3.41,1.29l17.72,0a13.27,13.27 0 0 1 2.62,0.34a13.6,13.6 0 0 1 2.77,1a13.39,13.39 0 0 1 2.61,1.64a10.91,10.91 0 0 1 2.2,2.39a11.42,11.42 0 0 1 1.5,3.14a13.55,13.55 0 0 1 0.58,4.08z" fill="#152b47" id="svg_12"/>
  </g>
 </g>
</svg>